HIERARCHY
ROOT Hips
{
	OFFSET 0.000000 0.000000 0.000000 
	CHANNELS 6 Xposition Yposition Zposition Zrotation Yrotation Xrotation
	JOINT LeftUpLeg
	{
		OFFSET 1.363060 -1.794630 0.839290 
		CHANNELS 3 Zrotation Yrotation Xrotation
		JOINT LeftLeg
		{
			OFFSET 2.448110 -6.726130 0.000000 
			CHANNELS 3 Zrotation Yrotation Xrotation
			JOINT LeftFoot
			{
				OFFSET 2.562200 -7.039590 0.000000 
				CHANNELS 3 Zrotation Yrotation Xrotation
				JOINT LeftToeBase
				{
					OFFSET 0.157640 -0.433110 2.322550 
					CHANNELS 3 Zrotation Yrotation Xrotation
					End Site
					{
						OFFSET 0.000000 0.000000 0.000000 
					}
				}
			}
		}
	}
	JOINT RightUpLeg
	{
		OFFSET -1.305520 -1.794630 0.839290 
		CHANNELS 3 Zrotation Yrotation Xrotation
		JOINT RightLeg
		{
			OFFSET -2.542530 -6.985550 0.000000 
			CHANNELS 3 Zrotation Yrotation Xrotation
			JOINT RightFoot
			{
				OFFSET -2.568260 -7.056230 0.000000 
				CHANNELS 3 Zrotation Yrotation Xrotation
				JOINT RightToeBase
				{
					OFFSET -0.164730 -0.452590 2.363150 
					CHANNELS 3 Zrotation Yrotation Xrotation
					End Site
					{
						OFFSET 0.000000 0.000000 0.000000 
					}
				}
			}
		}
	}
	JOINT Spine
	{
		OFFSET 0.028270 2.035590 -0.193380 
		CHANNELS 3 Zrotation Yrotation Xrotation
		JOINT Spine1
		{
			OFFSET 0.056720 2.048850 -0.042750 
			CHANNELS 3 Zrotation Yrotation Xrotation
			JOINT Neck1
			{
				OFFSET -0.054170 1.746240 0.172020 
				CHANNELS 3 Zrotation Yrotation Xrotation
				JOINT Head
				{
					OFFSET 0.104070 1.761360 -0.123970 
					CHANNELS 3 Zrotation Yrotation Xrotation
					End Site
					{
						OFFSET 0.000000 0.000000 0.000000 
					}
				}
			}
			JOINT LeftArm
			{
				OFFSET 3.362410 1.200890 -0.311210 
				CHANNELS 3 Zrotation Yrotation Xrotation
				JOINT LeftForeArm
				{
					OFFSET 4.983000 -0.000000 -0.000000 
					CHANNELS 3 Zrotation Yrotation Xrotation
					JOINT LeftHand
					{
						OFFSET 3.483560 -0.000000 -0.000000 
						CHANNELS 3 Zrotation Yrotation Xrotation
						JOINT LeftHandIndex1
						{
							OFFSET 0.715260 -0.000000 -0.000000 
							CHANNELS 3 Zrotation Yrotation Xrotation
							End Site
							{
								OFFSET 0.000000 0.000000 0.000000 
							}
						}
					}
				}
			}
			JOINT RightArm
			{
				OFFSET -3.136600 1.374050 -0.404650 
				CHANNELS 3 Zrotation Yrotation Xrotation
				JOINT RightForeArm
				{
					OFFSET -5.241900 -0.000000 -0.000000 
					CHANNELS 3 Zrotation Yrotation Xrotation
					JOINT RightHand
					{
						OFFSET -3.444170 -0.000000 -0.000000 
						CHANNELS 3 Zrotation Yrotation Xrotation
						JOINT RightHandIndex1
						{
							OFFSET -0.622530 -0.000000 -0.000000 
							CHANNELS 3 Zrotation Yrotation Xrotation
							End Site
							{
								OFFSET 0.000000 0.000000 0.000000 
							}
						}
					}
				}
			}
		}
	}
}
MOTION
Frames: 7
Frame Time: 0.041667
29.455110 17.676603 -32.001780 -3.418830 -41.588121 20.526917 -13.914443 3.988907 -44.699494 3.877295 13.335055 39.554589 -1.490988 6.694736 0.898992 0.044300 -1.358000 -3.734500 10.412709 12.568736 -39.619125 -4.306961 -13.911049 41.542980 0.604101 -4.237338 -3.793989 -0.031100 1.137500 -3.127300 1.030633 -3.234223 -1.554087 -9.844649 -1.016961 5.718351 6.988099 -3.838583 -2.840383 4.599900 -1.405900 -1.261100 -74.474899 -31.231265 50.506985 53.334859 -54.467042 -31.278572 -0.348511 -1.356800 -58.182057 -7.125000 0.000000 0.000000 93.321274 -2.299395 45.369680 -48.893186 53.664595 -24.593500 0.426523 -0.709992 1.711236 7.125000 0.000000 0.000000 
29.463741 17.683233 -31.992729 -3.162739 -40.929933 20.146915 -13.911627 3.577358 -44.305428 3.820680 13.282807 39.393199 -1.446881 6.578455 1.061715 0.044500 -1.361700 -3.744700 10.369558 11.975175 -39.482333 -4.299241 -13.911744 41.525923 0.611729 -4.277009 -3.862689 -0.026900 1.059800 -2.913200 1.077483 -3.542271 -1.550443 -9.854348 -1.149638 5.642311 6.915450 -3.878243 -2.815309 4.566300 -1.425700 -1.235400 -74.671858 -31.210387 50.603798 53.438375 -54.499315 -31.350999 -0.355160 -1.343510 -58.183237 -7.125000 0.000000 0.000000 93.237338 -2.373500 45.349650 -48.929578 53.673134 -24.624975 0.424833 -0.709502 1.751559 7.125000 0.000000 0.000000 
29.465425 17.683339 -31.995992 -3.183103 -40.969395 20.195852 -13.895076 3.594422 -44.325856 3.804378 13.268198 39.334671 -1.439279 6.560754 1.098695 0.042100 -1.324000 -3.640600 10.360331 12.050030 -39.504642 -4.293730 -13.905460 41.501848 0.625969 -4.316034 -3.843190 -0.027400 1.068600 -2.937600 1.081535 -3.494297 -1.545444 -9.804688 -1.130933 5.672977 6.900531 -3.897327 -2.794615 4.560000 -1.434100 -1.218700 -74.693171 -31.348227 50.643756 53.440284 -54.494261 -31.341540 -0.364205 -1.331919 -58.258312 -7.125000 0.000000 0.000000 93.207840 -2.415489 45.372993 -48.966161 53.690040 -24.655184 0.421405 -0.710358 1.768646 7.125000 0.000000 0.000000 
29.468477 17.684496 -31.999044 -3.171757 -40.896122 20.195953 -13.894257 3.568456 -44.321138 3.784546 13.247023 39.259428 -1.447690 6.583298 1.203461 0.043400 -1.344100 -3.696200 10.342544 12.051390 -39.511941 -4.286770 -13.900040 41.472165 0.656296 -4.403573 -3.826805 -0.029400 1.106300 -3.041500 1.075865 -3.518265 -1.537535 -9.890743 -1.128016 5.715781 6.883786 -3.923113 -2.759823 4.535000 -1.447900 -1.187800 -74.624109 -31.435038 50.696572 53.537147 -54.526490 -31.431387 -0.352016 -1.354645 -58.383013 -7.125000 0.000000 0.000000 93.285615 -2.442428 45.375227 -48.968645 53.704061 -24.658734 0.425209 -0.716120 1.820319 7.125000 0.000000 0.000000 
29.468161 17.687338 -32.003149 -3.235198 -41.042004 20.264340 -13.916603 3.759557 -44.390141 3.775270 13.240471 39.226190 -1.428008 6.535810 1.244971 0.041200 -1.310500 -3.603500 10.343265 12.238465 -39.478048 -4.278835 -13.886877 41.438945 0.665645 -4.426467 -3.809488 -0.027300 1.066500 -2.931900 1.075649 -3.409653 -1.536401 -9.811230 -1.088373 5.708775 6.893299 -3.949185 -2.781974 4.546800 -1.460100 -1.204000 -74.656182 -31.495365 50.793361 53.651997 -54.564405 -31.513402 -0.356355 -1.349691 -58.438456 -7.125000 0.000000 0.000000 93.236502 -2.547420 45.398315 -49.014887 53.724009 -24.692704 0.415808 -0.716566 1.797535 7.125000 0.000000 0.000000 
29.470372 17.689338 -32.005254 -3.228627 -41.035247 20.269041 -13.933722 3.786872 -44.400014 3.763141 13.229676 39.185976 -1.419586 6.515197 1.291767 0.040400 -1.298000 -3.569200 10.320265 12.277620 -39.463546 -4.269930 -13.877365 41.402782 0.680095 -4.467500 -3.792252 -0.026500 1.050500 -2.887900 1.077732 -3.389323 -1.533386 -9.795764 -1.079460 5.715104 6.888997 -3.967536 -2.785176 4.545400 -1.468900 -1.204200 -74.672299 -31.560914 50.866947 53.750581 -54.594857 -31.585651 -0.360327 -1.344625 -58.487327 -7.125000 0.000000 0.000000 93.224069 -2.613172 45.423395 -49.032159 53.736226 -24.707559 0.414090 -0.718324 1.832583 7.125000 0.000000 0.000000 
29.472477 17.691338 -32.007674 -3.227217 -41.055663 20.283987 -13.953644 3.823073 -44.418399 3.752153 13.219389 39.147251 -1.418256 6.512790 1.328021 0.039600 -1.284500 -3.531800 10.292526 12.341147 -39.451361 -4.261029 -13.867826 41.366424 0.693274 -4.504276 -3.772871 -0.025700 1.034400 -2.843500 1.076299 -3.359450 -1.529930 -9.789844 -1.065324 5.725720 6.892930 -3.979947 -2.796832 4.549300 -1.474500 -1.210600 -74.673966 -31.622866 50.935409 53.857362 -54.627439 -31.664364 -0.365108 -1.337640 -58.522866 -7.125000 0.000000 0.000000 93.217653 -2.673896 45.457687 -49.037053 53.744566 -24.712237 0.412733 -0.720300 1.876408 7.125000 0.000000 0.000000 
